<?xml version="1.0" standalone="no"?>
<!DOCTYPE svg PUBLIC "-//W3C//DTD SVG 20010904//EN"
 "http://www.w3.org/TR/2001/REC-SVG-20010904/DTD/svg10.dtd">
<svg version="1.0" xmlns="http://www.w3.org/2000/svg"
 width="978.000000pt" height="926.000000pt" viewBox="0 0 978.000000 926.000000"
 preserveAspectRatio="xMidYMid meet">

<g transform="translate(0.000000,926.000000) scale(0.100000,-0.100000)"
fill="#ffffff" stroke="none">
<path d="M6823 7368 c-29 -32 -68 -112 -89 -183 -12 -41 -18 -96 -18 -175 -1
-112 0 -117 36 -196 21 -44 43 -103 49 -131 14 -58 12 -61 -101 -223 -33 -47
-72 -110 -87 -140 -15 -30 -46 -78 -68 -105 -52 -65 -112 -201 -171 -390 -54
-173 -73 -214 -149 -320 -73 -103 -73 -123 0 -230 31 -44 72 -105 92 -135 20
-30 51 -77 69 -104 l33 -50 -30 -38 c-17 -21 -37 -38 -44 -38 -18 0 -500 -246
-551 -281 -23 -15 -65 -54 -94 -86 l-53 -58 -66 -1 c-52 -2 -88 -11 -169 -43
-180 -72 -423 -158 -542 -191 -63 -17 -145 -41 -181 -51 -110 -32 -210 -105
-317 -234 l-23 -28 -30 36 c-39 47 -89 62 -285 82 -83 8 -154 15 -157 15 -23
0 38 246 69 283 33 39 33 105 1 135 -30 28 -43 30 -257 42 -102 6 -232 17
-290 25 -58 8 -195 19 -305 25 -110 5 -296 15 -413 21 -223 12 -323 5 -579
-37 l-93 -16 -26 31 c-14 17 -64 54 -112 83 -48 28 -132 81 -187 118 -55 36
-160 102 -233 146 -73 43 -180 116 -238 161 -57 45 -171 121 -252 169 -203
120 -212 126 -375 237 -138 93 -322 197 -351 197 -8 0 -19 -15 -25 -32 -11
-30 -10 -34 11 -48 94 -63 325 -232 405 -297 54 -44 141 -111 193 -150 52 -38
136 -106 187 -149 61 -52 166 -123 307 -208 119 -72 214 -131 213 -132 -10
-10 -233 83 -301 125 -156 95 -237 121 -244 76 -2 -11 -17 -31 -33 -45 -30
-25 -89 -170 -89 -217 0 -12 -4 -33 -9 -47 -10 -25 -10 -24 -74 37 -35 34 -96
81 -136 105 -40 23 -128 84 -197 135 -68 50 -170 120 -227 154 l-102 62 -7
-42 c-3 -23 -7 -72 -7 -108 l-1 -67 75 -51 c41 -29 75 -53 75 -54 0 -1 -34
-37 -75 -80 l-75 -77 0 -90 c0 -78 2 -90 17 -90 36 0 202 196 214 252 3 14 39
-6 167 -93 162 -110 162 -110 162 -148 0 -76 -33 -142 -203 -405 -131 -204
-227 -376 -226 -405 0 -14 8 -50 17 -80 l17 -54 82 124 c45 68 127 187 183
264 55 77 122 172 147 210 25 39 63 96 85 127 52 77 85 152 93 215 l7 53 31
-16 c18 -9 64 -47 102 -84 77 -74 202 -158 328 -222 137 -68 202 -89 313 -98
112 -9 169 -29 226 -79 45 -39 78 -105 79 -157 1 -22 10 -82 21 -134 19 -95
24 -230 10 -304 -6 -34 -12 -40 -47 -51 -22 -7 -85 -17 -140 -23 -55 -6 -147
-24 -205 -41 -58 -17 -118 -31 -133 -31 -15 0 -77 -19 -138 -41 l-110 -42 -42
17 c-76 31 -219 32 -427 2 -101 -15 -197 -24 -212 -21 -24 6 -138 -12 -138
-21 0 -2 11 -28 24 -58 l24 -54 59 -9 c74 -10 380 -10 499 0 l91 7 -5 -29 c-5
-39 30 -112 75 -156 28 -27 31 -34 17 -39 -8 -3 -106 -6 -217 -6 -200 0 -374
-13 -390 -29 -4 -4 4 -34 20 -65 19 -40 35 -59 53 -64 40 -11 498 -6 584 6
106 16 124 26 153 80 4 8 82 -22 194 -74 64 -29 150 -63 191 -74 146 -40 247
-87 325 -153 163 -137 163 -137 223 -137 57 0 302 14 525 31 72 5 220 14 330
19 110 6 279 19 375 30 238 27 486 43 535 35 23 -3 49 -3 59 1 18 7 66 82 66
104 0 7 23 62 52 121 58 123 53 119 253 224 121 63 229 136 238 160 4 8 11 15
17 15 6 0 59 -48 118 -106 59 -59 144 -135 189 -171 45 -35 112 -101 149 -146
79 -95 165 -182 394 -397 262 -245 280 -262 380 -345 334 -277 514 -445 811
-760 109 -116 239 -248 289 -293 l90 -83 71 39 71 39 -93 109 c-245 286 -568
615 -818 833 -75 65 -208 181 -296 258 -88 77 -242 218 -341 314 -100 96 -227
217 -281 269 -55 52 -134 133 -175 180 l-77 86 9 44 c28 141 30 638 4 808 l-7
43 84 -5 c252 -17 556 -27 639 -21 283 20 329 45 786 425 117 96 238 195 270
220 48 37 60 52 62 79 2 20 -3 40 -13 51 -15 17 -11 19 97 43 62 15 140 32
173 39 42 8 199 12 525 13 399 2 477 4 550 19 139 29 307 102 329 144 5 9 12
35 15 58 6 35 4 45 -20 73 -63 75 -173 103 -404 103 -156 -1 -224 -11 -394
-62 -142 -43 -374 -78 -571 -87 -179 -9 -329 -5 -285 7 21 5 25 11 22 41 -2
19 -8 39 -13 44 -6 6 -79 9 -192 7 -118 -2 -192 0 -211 7 -52 21 -229 180
-268 241 -15 25 -15 26 41 77 62 55 88 110 76 163 -8 36 -64 86 -124 113 -26
11 -47 21 -49 22 -1 1 20 44 47 96 27 52 71 146 96 209 85 208 156 341 198
367 27 16 236 343 243 379 13 68 -3 195 -35 286 -28 80 -31 99 -31 213 0 69 3
125 6 125 4 0 54 -49 113 -108 58 -60 142 -135 186 -167 44 -33 100 -78 125
-101 25 -23 75 -62 112 -86 l68 -45 -41 -54 c-60 -80 -72 -105 -59 -129 7 -13
21 -20 42 -20 26 0 44 13 105 78 40 42 135 158 211 257 75 98 152 190 171 202
41 27 124 32 158 8 28 -20 113 -177 158 -293 62 -160 46 -274 -73 -528 -82
-173 -102 -230 -102 -283 0 -75 72 -95 106 -29 9 18 27 61 39 97 12 36 55 132
96 214 l73 147 23 -22 c39 -36 141 -192 179 -272 25 -53 44 -118 64 -218 16
-79 42 -197 59 -263 44 -173 60 -288 67 -475 6 -155 28 -321 68 -505 8 -39 20
-113 26 -165 6 -52 15 -122 21 -155 18 -98 13 -267 -10 -400 -25 -135 -67
-335 -81 -380 -5 -16 -15 -64 -20 -105 -6 -41 -20 -134 -30 -207 -22 -155 -50
-268 -84 -345 -14 -31 -72 -195 -129 -364 -57 -170 -131 -374 -165 -454 -105
-252 -203 -592 -179 -617 4 -4 55 40 112 97 116 115 113 111 180 350 31 112
119 371 165 485 150 376 280 841 280 1006 0 60 39 256 96 484 42 170 47 202
47 305 1 102 -3 126 -30 210 -61 189 -100 422 -114 680 -15 276 -29 407 -54
503 -13 51 -37 166 -55 257 -17 91 -37 192 -46 225 -20 78 -76 171 -162 269
-64 72 -168 166 -183 166 -4 0 -4 38 -2 84 7 99 -3 143 -58 280 -139 341 -181
386 -358 386 -132 0 -187 -40 -325 -239 -54 -78 -101 -141 -106 -141 -14 0
-134 91 -201 154 -36 33 -105 92 -155 131 -108 85 -177 142 -260 218 -70 63
-98 70 -131 35z m-448 -1958 c19 -12 35 -28 35 -35 0 -12 -68 -75 -80 -75 -9
1 -60 87 -60 103 0 36 10 45 41 37 16 -5 45 -18 64 -30z m175 -532 c35 -23 50
-40 50 -55 0 -15 -6 -23 -17 -23 -10 0 -46 -13 -80 -30 l-63 -29 0 41 c0 27 9
55 28 84 15 24 28 44 30 44 1 0 25 -15 52 -32z m165 -68 c16 -7 12 -9 -18 -9
-23 -1 -36 3 -32 9 7 12 23 12 50 0z m-5582 -66 c104 -75 133 -91 243 -134 43
-17 153 -69 246 -116 151 -76 167 -87 158 -104 -16 -30 -12 -82 10 -118 14
-22 20 -50 20 -87 l0 -54 -56 25 c-30 13 -141 51 -246 84 -261 82 -388 153
-488 271 -44 53 -50 66 -50 105 0 38 55 194 68 194 1 0 44 -30 95 -66z m7451
37 c10 -15 -23 -22 -164 -37 -137 -13 -584 -29 -564 -19 6 3 73 19 150 35 128
27 156 29 356 29 119 1 219 -3 222 -8z m-2244 -45 c0 -36 -4 -47 -27 -61 -81
-53 -172 -165 -214 -262 -19 -46 -52 -155 -71 -240 -8 -36 -22 -52 -96 -114
-48 -40 -130 -115 -183 -167 -53 -51 -100 -89 -103 -83 -8 13 10 264 26 351
16 95 42 162 86 227 56 82 102 121 212 177 122 63 264 146 315 185 22 17 43
31 48 31 4 0 7 -20 7 -44z m1483 -23 c-7 -2 -19 -2 -25 0 -7 3 -2 5 12 5 14 0
19 -2 13 -5z m-1077 -35 c-37 -45 -77 -131 -83 -179 -7 -46 -7 -46 -98 -77
-89 -30 -256 -109 -351 -167 -41 -25 -77 -45 -79 -45 -2 0 9 32 25 71 51 123
152 243 263 314 119 75 217 111 311 114 l39 1 -27 -32z m514 11 c80 -5 179 -7
220 -5 99 7 51 -6 -122 -33 -140 -22 -373 -79 -471 -114 l-63 -23 43 83 c24
46 43 91 43 100 0 17 -9 17 350 -8z m453 14 c-13 -2 -33 -2 -45 0 -13 2 -3 4
22 4 25 0 35 -2 23 -4z m-105 -10 c-10 -2 -26 -2 -35 0 -10 3 -2 5 17 5 19 0
27 -2 18 -5z m-6720 -208 c-9 -9 -30 14 -23 25 6 9 10 8 17 -4 6 -10 8 -19 6
-21z m950 11 c20 -10 21 -14 9 -24 -12 -10 -18 -8 -31 13 -18 28 -13 31 22 11z
m1557 -47 c127 -11 234 -21 239 -22 24 -7 -355 -38 -549 -44 -309 -11 -951 -9
-1005 4 l-45 10 40 12 c228 68 798 85 1320 40z m3367 -109 c27 0 29 -2 17 -16
-13 -16 -227 -192 -392 -322 -50 -40 -118 -87 -151 -103 -72 -38 -241 -77
-361 -85 -105 -7 -112 -18 66 117 170 129 366 249 564 343 148 71 181 83 202
75 13 -5 38 -9 55 -9z m-1187 -7 c-37 -94 -49 -174 -49 -340 -1 -94 -4 -169
-7 -167 -12 7 -192 23 -274 25 -91 2 -105 -8 -105 -76 l0 -42 -52 14 c-71 20
-243 29 -252 14 -8 -12 -46 -15 -46 -3 -5 66 -12 107 -24 129 -22 43 -77 91
-120 106 l-38 13 68 27 c38 14 117 40 177 57 59 17 151 49 205 72 53 22 187
71 296 109 109 38 201 71 204 74 12 12 24 4 17 -12z m-1850 -194 c-51 -197
-65 -306 -65 -524 0 -143 -5 -221 -20 -315 -25 -154 -69 -383 -75 -388 -8 -8
-1339 -22 -1346 -15 -8 10 -64 190 -79 258 -8 37 -8 94 1 220 18 254 -1 383
-96 655 -23 66 -39 132 -42 179 -6 69 -5 73 13 68 170 -51 293 -61 654 -53
463 9 779 24 940 44 80 10 146 15 148 11 1 -3 -13 -66 -33 -140z m174 -224
c63 -22 276 -65 322 -65 28 0 39 -4 37 -12 -7 -19 -38 -24 -365 -63 l-43 -5 0
80 c0 44 2 80 4 80 2 0 22 -7 45 -15z m707 -37 c7 -7 16 -26 20 -42 6 -26 5
-28 -12 -22 -10 4 -70 12 -132 18 -122 12 -129 20 -44 50 53 19 148 17 168 -4z
m34 -218 c36 -6 89 -17 118 -26 l52 -15 0 -98 c0 -54 -5 -123 -10 -152 -6 -30
-11 -89 -11 -132 0 -43 -4 -77 -7 -75 -4 2 -37 18 -75 36 -84 41 -238 77 -430
99 -128 15 -166 15 -285 5 -76 -7 -148 -15 -160 -19 -21 -5 -22 -4 -16 58 6
80 22 222 30 272 l6 37 66 0 c37 0 98 -5 136 -10 53 -8 98 -7 185 5 209 27
301 30 401 15z m391 -99 c36 -5 77 -7 92 -4 26 5 27 4 27 -43 0 -27 -7 -112
-15 -189 -8 -77 -15 -197 -15 -267 0 -71 -2 -128 -4 -128 -2 0 -46 31 -97 70
l-92 69 4 118 c2 65 3 180 2 256 -3 127 -1 138 15 133 9 -3 47 -10 83 -15z
m-3066 -418 c4 -27 15 -93 26 -147 11 -54 18 -100 17 -102 -9 -8 -516 18 -583
30 -44 8 -99 18 -122 21 -24 4 -43 10 -43 14 0 24 116 84 260 135 70 25 367
93 416 95 18 1 23 -6 29 -46z m2327 -4 c100 -11 185 -22 188 -25 16 -17 -126
-86 -235 -114 -182 -46 -485 -81 -485 -55 0 6 9 36 20 68 11 31 20 69 20 84 0
44 11 52 75 56 149 9 248 6 417 -14z m-122 -356 c0 -3 -20 -38 -44 -77 -24
-39 -52 -87 -61 -107 l-17 -36 -192 -12 c-105 -6 -261 -20 -346 -30 -85 -11
-211 -22 -280 -26 -69 -3 -181 -12 -250 -20 -69 -8 -185 -19 -258 -25 -114 -9
-322 -40 -373 -56 -12 -3 -19 3 -23 21 -23 90 -237 215 -516 301 -86 26 -80
28 45 13 208 -24 909 -26 1550 -5 425 14 546 24 705 55 61 12 60 12 60 4z"/>
<path d="M6830 5973 c-30 -11 -51 -38 -81 -101 -17 -35 -53 -86 -80 -115 -53
-55 -57 -68 -34 -87 24 -20 117 31 157 87 l33 45 7 -45 c6 -45 33 -97 49 -97
5 0 9 -4 9 -9 0 -6 -18 -9 -41 -8 -76 4 -80 -53 -6 -82 52 -19 76 -9 146 62
57 59 68 65 144 87 102 29 144 64 126 104 -9 19 -32 33 -88 55 -42 16 -90 33
-106 37 -17 4 -61 22 -100 41 -66 31 -101 38 -135 26z m99 -123 c62 -31 69
-84 19 -139 l-31 -34 -17 23 c-10 13 -21 42 -24 64 -4 23 -9 56 -12 74 -7 39
8 42 65 12z m124 -71 c-29 -12 -33 -10 -33 11 0 17 3 18 26 8 23 -11 24 -13 7
-19z"/>
<path d="M7122 5411 c-8 -4 -12 -19 -10 -32 3 -24 5 -24 126 -27 121 -3 146 4
101 28 -62 34 -186 51 -217 31z"/>
<path d="M370 5338 c-40 -66 -122 -259 -116 -274 11 -28 30 -8 85 87 99 174
101 180 90 200 -15 28 -37 23 -59 -13z"/>
<path d="M7113 5283 c-26 -10 -12 -32 25 -41 51 -13 568 -110 615 -116 33 -4
37 -3 27 9 -26 32 -316 108 -531 139 -113 17 -117 17 -136 9z"/>
<path d="M522 5132 c-23 -42 -45 -88 -48 -102 -5 -25 -5 -25 21 5 37 43 105
157 99 167 -13 20 -32 2 -72 -70z"/>
<path d="M7040 5185 c-17 -20 -3 -54 28 -66 15 -6 132 -33 260 -60 221 -46
352 -61 352 -39 0 13 -75 55 -151 84 -85 32 -373 96 -431 96 -28 0 -50 -6 -58
-15z"/>
<path d="M712 5033 c-43 -62 -85 -157 -90 -204 -3 -29 0 -49 5 -49 16 0 84 79
131 152 53 82 55 121 6 126 -25 2 -36 -3 -52 -25z"/>
<path d="M299 4461 c-41 -41 -72 -90 -114 -172 l-57 -114 6 -84 c3 -46 10 -89
14 -97 9 -16 112 152 195 317 29 57 62 119 75 137 33 45 26 65 -23 69 -37 2
-44 -2 -96 -56z"/>
<path d="M917 4149 c-96 -51 -394 -509 -448 -690 -22 -73 11 -115 69 -85 65
33 235 235 343 406 140 223 168 297 137 365 -14 31 -47 32 -101 4z"/>
<path d="M1254 3908 c-103 -97 -262 -331 -304 -446 -27 -75 -19 -93 28 -59 50
37 102 102 196 242 91 136 140 228 151 283 9 45 -7 41 -71 -20z"/>
<path d="M1617 3831 c-126 -131 -287 -382 -287 -448 0 -68 59 -68 113 0 63 79
226 361 256 444 42 114 25 115 -82 4z"/>
<path d="M1810 3767 c-38 -18 -171 -299 -191 -401 -9 -51 4 -86 32 -86 36 0
89 67 173 219 94 170 107 223 61 259 -32 25 -41 26 -75 9z"/>
</g>
</svg>
